<svg id="Capa_1" enable-background="new 0 0 512 512" height="512" viewBox="0 0 512 512" width="512" xmlns="http://www.w3.org/2000/svg"><circle cx="256" cy="256" fill="#fcee56" r="111.118"/><path d="m262.162 145.054-87.601 186.526c-7.869-8.455-14.415-18.143-19.335-28.729l72.479-154.333c9.031-2.374 18.516-3.637 28.295-3.637 2.071.001 4.121.062 6.162.173z" fill="#fbf4af"/><path d="m322.933 167.298-92.45 196.871c-15.092-3.536-28.992-10.162-41.013-19.153l92.551-197.062c15.062 3.605 28.932 10.282 40.912 19.344z" fill="#fbf4af"/><circle cx="256" cy="256" fill="#fba615" r="84.854"/><path d="m7.5 7.5h141.423v141.423h-141.423z" fill="#d0f0f3"/><path d="m130.256 7.5v112.756c0 5.523-4.477 10-10 10h-112.756v18.667h141.423v-141.423z" fill="#a5e4ef"/><path d="m37.805 37.805h80.813v80.813h-80.813z" fill="#62b4fd" transform="matrix(0 1 -1 0 156.423 0)"/><path d="m363.077 7.5h141.423v141.423h-141.423z" fill="#d0f0f3"/><path d="m485.833 7.5v112.756c0 5.523-4.477 10-10 10h-112.756v18.667h141.423v-141.423z" fill="#a5e4ef"/><path d="m393.382 37.805h80.813v80.813h-80.813z" fill="#62b4fd" transform="matrix(0 1 -1 0 512 -355.577)"/><path d="m7.5 363.077h141.423v141.423h-141.423z" fill="#d0f0f3"/><path d="m37.805 393.382h80.813v80.813h-80.813z" fill="#62b4fd" transform="matrix(0 1 -1 0 512 355.577)"/><path d="m363.077 363.077h141.423v141.423h-141.423z" fill="#d0f0f3"/><path d="m130.256 363.077v112.756c0 5.523-4.477 10-10 10h-112.756v18.667h141.423v-141.423z" fill="#a5e4ef"/><path d="m485.833 363.077v112.756c0 5.523-4.477 10-10 10h-112.756v18.667h141.423v-141.423z" fill="#a5e4ef"/><path d="m393.382 393.382h80.813v80.813h-80.813z" fill="#62b4fd" transform="matrix(0 1 -1 0 867.577 0)"/><path d="m256 137.382c-25.592 0-49.963 8.022-70.479 23.2-3.33 2.463-4.032 7.16-1.569 10.49 2.464 3.331 7.16 4.033 10.49 1.569 17.915-13.253 39.202-20.258 61.558-20.258 57.135 0 103.618 46.483 103.618 103.618s-46.483 103.617-103.618 103.617-103.618-46.483-103.618-103.618c0-21.672 6.619-42.426 19.14-60.017 2.402-3.375 1.613-8.057-1.761-10.459-3.373-2.401-8.057-1.614-10.459 1.761-14.34 20.146-21.919 43.907-21.919 68.715 0 65.406 53.212 118.618 118.618 118.618s118.617-53.212 118.617-118.618-53.212-118.618-118.618-118.618z"/><path d="m126.118 118.618v-80.813c0-4.142-3.358-7.5-7.5-7.5h-80.813c-4.142 0-7.5 3.358-7.5 7.5v80.813c0 4.142 3.358 7.5 7.5 7.5h80.813c4.142 0 7.5-3.358 7.5-7.5zm-15-7.5h-65.813v-65.813h65.813z"/><path d="m504.5 156.423c4.142 0 7.5-3.358 7.5-7.5v-141.423c0-4.142-3.358-7.5-7.5-7.5h-76.958c-4.142 0-7.5 3.358-7.5 7.5s3.358 7.5 7.5 7.5h69.458v126.423h-126.423v-126.423h21.964c4.142 0 7.5-3.358 7.5-7.5s-3.358-7.5-7.5-7.5h-29.464c-4.142 0-7.5 3.358-7.5 7.5v63.211h-32.132c-3.386-18.365-19.505-32.325-38.835-32.325h-57.22c-19.329 0-35.449 13.96-38.835 32.325h-32.132v-63.211c0-4.142-3.358-7.5-7.5-7.5h-141.423c-4.142 0-7.5 3.358-7.5 7.5v141.423c0 4.142 3.358 7.5 7.5 7.5h63.211v32.132c-18.365 3.385-32.325 19.505-32.325 38.835v57.22c0 19.329 13.96 35.449 32.325 38.835v32.132h-63.211c-4.142 0-7.5 3.358-7.5 7.5v76.958c0 4.142 3.358 7.5 7.5 7.5s7.5-3.358 7.5-7.5v-69.458h126.423v126.423h-126.423v-21.964c0-4.142-3.358-7.5-7.5-7.5s-7.5 3.358-7.5 7.5v29.464c0 4.142 3.358 7.5 7.5 7.5h141.423c4.142 0 7.5-3.358 7.5-7.5v-62.201h32.132c3.386 18.365 19.505 32.325 38.835 32.325h57.22c19.329 0 35.449-13.96 38.835-32.325h32.132v62.201c0 4.142 3.358 7.5 7.5 7.5h141.423c4.142 0 7.5-3.358 7.5-7.5v-141.423c0-4.142-3.358-7.5-7.5-7.5h-63.211v-32.132c18.365-3.385 32.325-19.505 32.325-38.835v-57.22c0-19.329-13.96-35.449-32.325-38.835v-32.132zm-277.11-103.037h57.22c11.014 0 20.351 7.306 23.426 17.325h-19.711c-4.142 0-7.5 3.358-7.5 7.5s3.358 7.5 7.5 7.5h19.711c-3.075 10.019-12.412 17.325-23.426 17.325h-57.22c-11.014 0-20.351-7.306-23.426-17.325h19.711c4.142 0 7.5-3.358 7.5-7.5s-3.358-7.5-7.5-7.5h-19.711c3.075-10.019 12.413-17.325 23.426-17.325zm-212.39-38.386h126.423v126.423h-126.423zm38.386 269.61v-57.22c0-11.014 7.306-20.351 17.325-23.426v19.711c0 4.142 3.358 7.5 7.5 7.5s7.5-3.358 7.5-7.5v-19.711c10.019 3.075 17.325 12.412 17.325 23.426v57.22c0 11.014-7.306 20.351-17.325 23.426v-19.711c0-4.142-3.358-7.5-7.5-7.5s-7.5 3.358-7.5 7.5v19.711c-10.019-3.075-17.325-12.412-17.325-23.426zm231.224 175.014h-57.22c-11.014 0-20.351-7.306-23.426-17.325h19.711c4.142 0 7.5-3.358 7.5-7.5s-3.358-7.5-7.5-7.5h-19.711c3.075-10.019 12.412-17.325 23.426-17.325h57.22c11.014 0 20.351 7.306 23.426 17.325h-19.711c-4.142 0-7.5 3.358-7.5 7.5s3.358 7.5 7.5 7.5h19.711c-3.075 10.019-12.413 17.325-23.426 17.325zm212.39 37.376h-126.423v-126.423h126.423zm-38.386-269.61v57.22c0 11.014-7.306 20.351-17.325 23.426v-19.711c0-4.142-3.358-7.5-7.5-7.5s-7.5 3.358-7.5 7.5v19.711c-10.019-3.075-17.325-12.412-17.325-23.426v-57.22c0-11.014 7.306-20.351 17.325-23.426v19.711c0 4.142 3.358 7.5 7.5 7.5s7.5-3.358 7.5-7.5v-19.711c10.019 3.075 17.325 12.412 17.325 23.426zm-32.325-38.835c-18.365 3.385-32.325 19.505-32.325 38.835v57.22c0 19.329 13.96 35.449 32.325 38.835v32.132h-63.211c-4.142 0-7.5 3.358-7.5 7.5v64.222h-32.132c-3.386-18.365-19.505-32.325-38.835-32.325h-57.22c-19.329 0-35.449 13.96-38.835 32.325h-32.132v-64.222c0-4.142-3.358-7.5-7.5-7.5h-63.213v-32.132c18.365-3.385 32.325-19.505 32.325-38.835v-57.22c0-19.329-13.96-35.449-32.325-38.835v-32.132h63.211c4.142 0 7.5-3.358 7.5-7.5v-63.212h32.132c3.386 18.365 19.505 32.325 38.835 32.325h57.22c19.329 0 35.449-13.96 38.835-32.325h32.132v63.211c0 4.142 3.358 7.5 7.5 7.5h63.211v32.133z"/><path d="m385.882 37.805v80.813c0 4.142 3.358 7.5 7.5 7.5h80.813c4.142 0 7.5-3.358 7.5-7.5v-80.813c0-4.142-3.358-7.5-7.5-7.5h-80.813c-4.142 0-7.5 3.358-7.5 7.5zm15 7.5h65.813v65.813h-65.813z"/><path d="m118.618 481.695c4.142 0 7.5-3.358 7.5-7.5v-80.813c0-4.142-3.358-7.5-7.5-7.5h-80.813c-4.142 0-7.5 3.358-7.5 7.5v80.813c0 4.142 3.358 7.5 7.5 7.5zm-73.313-80.813h65.813v65.813h-65.813z"/><path d="m385.882 393.382v80.813c0 4.142 3.358 7.5 7.5 7.5h80.813c4.142 0 7.5-3.358 7.5-7.5v-80.813c0-4.142-3.358-7.5-7.5-7.5h-80.813c-4.142 0-7.5 3.358-7.5 7.5zm15 7.5h65.813v65.813h-65.813z"/><path d="m223.246 297.998h-2.602c-4.142 0-7.5 3.358-7.5 7.5s3.358 7.5 7.5 7.5h10.102 2.602v8.663c0 4.142 3.358 7.5 7.5 7.5s7.5-3.358 7.5-7.5v-8.663h10.254v8.663c0 4.142 3.358 7.5 7.5 7.5s7.5-3.358 7.5-7.5v-9.384c14.415-3.106 25.254-15.947 25.254-31.278v-.499c0-9.825-4.454-18.625-11.445-24.5 6.991-5.875 11.445-14.675 11.445-24.5v-.498c0-15.331-10.839-28.172-25.254-31.278v-9.384c0-4.142-3.358-7.5-7.5-7.5s-7.5 3.358-7.5 7.5v8.663h-10.254v-8.663c0-4.142-3.358-7.5-7.5-7.5s-7.5 3.358-7.5 7.5v8.663h-2.602-10.102c-4.142 0-7.5 3.358-7.5 7.5s3.358 7.5 7.5 7.5h2.602zm60.609-17.498v.498c0 9.374-7.626 17-17 17h-28.61v-34.498h28.61c9.374 0 17 7.626 17 17zm0-49.498v.498c0 9.374-7.626 17-17 17h-28.61v-34.498h28.61c9.374 0 17 7.626 17 17z"/></svg>