<?xml version="1.0" encoding="UTF-8"?>
<svg width="312px" height="312px" viewBox="0 0 312 312" version="1.1" xmlns="http://www.w3.org/2000/svg" xmlns:xlink="http://www.w3.org/1999/xlink">
    <!-- Generator: Sketch 54.1 (76490) - https://sketchapp.com -->
    <title>european-union</title>
    <desc>Created with Sketch.</desc>
    <g id="Page-1" stroke="none" stroke-width="1" fill="none" fill-rule="evenodd">
        <g id="european-union" fill="#FFDA44" fill-rule="nonzero">
            <g id="Group">
                <polygon id="Path" points="156.001 0.174 164.29 25.683 191.11 25.683 169.411 41.448 177.7 66.957 156.001 51.191 134.301 66.957 142.59 41.448 120.891 25.683 147.712 25.683"></polygon>
                <polygon id="Path" points="45.814 45.814 69.714 57.99 88.679 39.026 84.482 65.516 108.381 77.693 81.89 81.889 77.694 108.381 65.517 84.482 39.027 88.679 57.992 69.714"></polygon>
                <polygon id="Path" points="0.175 156 25.684 147.711 25.684 120.89 41.448 142.59 66.958 134.301 51.191 156 66.958 177.699 41.448 169.411 25.684 191.11 25.684 164.289"></polygon>
                <polygon id="Path" points="45.814 266.186 57.991 242.286 39.027 223.321 65.518 227.519 77.693 203.62 81.89 230.111 108.38 234.307 84.484 246.484 88.679 272.974 69.714 254.009"></polygon>
                <polygon id="Path" points="156.001 311.826 147.711 286.317 120.891 286.317 142.591 270.552 134.301 245.045 156.001 260.809 177.7 245.045 169.411 270.552 191.11 286.317 164.289 286.317"></polygon>
                <polygon id="Path" points="266.187 266.186 242.288 254.01 223.322 272.975 227.519 246.483 203.622 234.307 230.112 230.111 234.308 203.62 246.484 227.519 272.974 223.321 254.009 242.288"></polygon>
                <polygon id="Path" points="311.826 156 286.317 164.289 286.317 191.11 270.552 169.41 245.045 177.699 260.81 156 245.045 134.301 270.553 142.59 286.317 120.89 286.317 147.712"></polygon>
                <polygon id="Path" points="266.187 45.814 254.01 69.714 272.975 88.679 246.483 84.481 234.308 108.38 230.112 81.889 203.622 77.692 227.519 65.516 223.322 39.027 242.289 57.991"></polygon>
            </g>
        </g>
    </g>
</svg>